<!DOCTYPE svg PUBLIC "-//W3C//DTD SVG 1.1//EN" "http://www.w3.org/Graphics/SVG/1.1/DTD/svg11.dtd">
<!-- Uploaded to: SVG Repo, www.svgrepo.com, Transformed by: SVG Repo Mixer Tools -->
<svg fill="#fcfcfc" height="800px" width="800px" version="1.1" id="Layer_1" xmlns="http://www.w3.org/2000/svg" xmlns:xlink="http://www.w3.org/1999/xlink" viewBox="0 0 491.52 491.52" xml:space="preserve" stroke="#fcfcfc">
<g id="SVGRepo_bgCarrier" stroke-width="0"/>
<g id="SVGRepo_tracerCarrier" stroke-linecap="round" stroke-linejoin="round"/>
<g id="SVGRepo_iconCarrier"> <g> <g> <path d="M406.31,191.855l-111.835-30.5l30.5,111.835l33.428-33.427l32.692,32.693l14.48-14.48l-32.693-32.692L406.31,191.855z M335.445,233.75l-11.78-43.205l43.205,11.78L335.445,233.75z"/> </g> </g> <g> <g> <path d="M491.52,389.12V30.72H0v358.4h153.6v51.2h-40.96v20.48h266.24v-20.48h-40.96v-51.2H491.52z M20.48,51.2h450.56v256H20.48 V51.2z M317.44,440.32H174.08v-51.2h143.36V440.32z M20.48,368.64v-40.96h450.56v40.96H20.48z"/> </g> </g> <g> <g> <path d="M153.6,163.84c-16.65,0-30.72-9.38-30.72-20.48c0-11.1,14.07-20.48,30.72-20.48c16.65,0,30.72,9.38,30.72,20.48h20.48 c0-19.779-17.62-36.325-40.96-40.131V92.16h-20.48v11.069c-23.34,3.806-40.96,20.352-40.96,40.131 c0,22.585,22.97,40.96,51.2,40.96c16.65,0,30.72,9.38,30.72,20.48c0,11.1-14.07,20.48-30.72,20.48 c-16.65,0-30.72-9.38-30.72-20.48H102.4c0,19.779,17.62,36.325,40.96,40.131V256h20.48v-11.069 c23.34-3.806,40.96-20.352,40.96-40.131C204.8,182.215,181.83,163.84,153.6,163.84z"/> </g> </g> </g>
</svg>